<svg width="68" height="68" viewBox="0 0 68 68" fill="none" xmlns="http://www.w3.org/2000/svg">
<rect width="68" height="68" fill="none"/>
<g id="Components">
<path d="M-315 -117C-315 -118.105 -314.105 -119 -313 -119H521C522.105 -119 523 -118.105 523 -117V637C523 638.105 522.105 639 521 639H-313C-314.105 639 -315 638.105 -315 637V-117Z" fill="none"/>
<g id="Light bulb">
<g id="Intensity=1, Color=Yellow">
<path id="Rectangle 1" d="M29.7613 18.865C29.7613 16.6559 31.5522 14.865 33.7613 14.865H34.0478C36.257 14.865 38.0478 16.6559 38.0478 18.865V26.4509H29.7613V18.865Z" fill="url(#paint0_linear_0_1)"/>
<circle id="Ellipse 1" cx="33.9046" cy="36.6465" r="13.2805" fill="#AEAEAE"/>
<ellipse id="Ellipse 14" opacity="0.5" cx="33.9046" cy="32.3611" rx="10.2444" ry="8.99518" fill="url(#paint1_radial_0_1)"/>
</g>
<rect x="-32.5" y="-23.5" width="248" height="541" rx="4.5" stroke="#9747FF" stroke-dasharray="10 5"/>
</g>
<path d="M-313 -118H521V-120H-313V-118ZM522 -117V637H524V-117H522ZM521 638H-313V640H521V638ZM-314 637V-117H-316V637H-314ZM-313 638C-313.552 638 -314 637.552 -314 637H-316C-316 638.657 -314.657 640 -313 640V638ZM522 637C522 637.552 521.552 638 521 638V640C522.657 640 524 638.657 524 637H522ZM521 -118C521.552 -118 522 -117.552 522 -117H524C524 -118.657 522.657 -120 521 -120V-118ZM-313 -120C-314.657 -120 -316 -118.657 -316 -117H-314C-314 -117.552 -313.552 -118 -313 -118V-120Z" fill="black" fill-opacity="0.1"/>
</g>
<defs>
<linearGradient id="paint0_linear_0_1" x1="38.0478" y1="19.2393" x2="29.7613" y2="19.1452" gradientUnits="userSpaceOnUse">
<stop offset="0.114583" stop-color="#242424"/>
<stop offset="0.492654" stop-color="#6E6962" stop-opacity="0.85"/>
<stop offset="0.869792" stop-color="#212121"/>
</linearGradient>
<radialGradient id="paint1_radial_0_1" cx="0" cy="0" r="1" gradientUnits="userSpaceOnUse" gradientTransform="translate(33.9046 32.3611) rotate(43.0087) scale(9.06143 10.1627)">
<stop offset="0.328125" stop-color="#FEFBF1" stop-opacity="0.99"/>
<stop offset="1" stop-color="#FEFBF1" stop-opacity="0"/>
</radialGradient>
</defs>
</svg>
